<?xml version="1.0" encoding="utf-8"?>
<!-- Generator: Adobe Illustrator 15.0.0, SVG Export Plug-In . SVG Version: 6.00 Build 0)  -->
<!DOCTYPE svg PUBLIC "-//W3C//DTD SVG 1.1//EN" "http://www.w3.org/Graphics/SVG/1.1/DTD/svg11.dtd">
<svg version="1.1" id="Layer_1" xmlns="http://www.w3.org/2000/svg" xmlns:xlink="http://www.w3.org/1999/xlink" x="0px" y="0px"
	 width="300px" height="292px" viewBox="0 0 300 292" enable-background="new 0 0 300 292" xml:space="preserve">
<g>
	<path fill="#58595B" d="M24.008,263.422c0,3.297,1.062,6.138,3.181,8.513c2.121,2.379,4.573,3.565,7.358,3.565
		c3.084,0,5.322-0.427,6.715-1.284c1.391-0.854,2.645-2.248,3.759-4.175l3.471,2.313c-1.586,2.398-3.385,4.188-5.398,5.366
		c-2.014,1.177-4.819,1.767-8.417,1.767c-3.813,0-7.273-1.596-10.377-4.788c-3.108-3.192-4.66-6.948-4.66-11.276
		s1.531-8.087,4.594-11.279c3.063-3.189,6.5-4.787,10.313-4.787c3.813,0,7.251,1.598,10.313,4.787
		c3.062,3.192,4.595,6.951,4.595,11.279H24.008z M24.651,259.436h19.792c-0.729-2.353-2.015-4.292-3.855-5.813
		c-1.843-1.523-3.856-2.281-6.041-2.281c-2.186,0-4.199,0.758-6.04,2.281C26.665,255.144,25.38,257.083,24.651,259.436z"/>
	<path fill="#58595B" d="M61.536,262.776l-8.997-14.393h5.141l6.425,10.284l6.426-10.284h5.206l-8.997,14.393l9.767,15.681h-5.204
		l-7.198-11.501l-7.196,11.501h-5.141L61.536,262.776z"/>
	<path fill="#58595B" d="M105.682,273.701c-1.542,1.929-3.224,3.376-5.045,4.338c-1.821,0.965-4.124,1.447-6.907,1.447
		c-3.814,0-7.273-1.596-10.378-4.788c-3.107-3.192-4.658-6.948-4.658-11.276s1.53-8.087,4.594-11.279
		c3.063-3.189,6.5-4.787,10.313-4.787c2.099,0,4.154,0.546,6.168,1.641c2.013,1.09,3.75,2.56,5.206,4.402l-3.213,2.506
		c-2.142-3.042-4.862-4.563-8.161-4.563c-2.785,0-5.238,1.188-7.358,3.564c-2.119,2.376-3.181,5.216-3.181,8.516
		c0,3.297,1.062,6.138,3.181,8.513c2.121,2.379,4.573,3.565,7.358,3.565c2.227,0,3.952-0.329,5.172-0.995
		c1.221-0.664,2.389-1.726,3.502-3.18L105.682,273.701z"/>
	<path fill="#58595B" d="M137.811,259.436v19.021h-4.369v-19.021c0-2.269-0.816-4.185-2.445-5.751
		c-1.628-1.56-3.79-2.343-6.489-2.343c-2.697,0-4.861,1.153-6.489,3.471c-1.628,2.312-2.442,5.183-2.442,8.609v15.035h-4.369v-46.65
		h4.369v19.341c2.442-2.526,5.418-3.792,8.932-3.792c3.813,0,6.982,1.085,9.511,3.246
		C136.545,252.763,137.811,255.71,137.811,259.436z"/>
	<path fill="#58595B" d="M148.38,274.698c-3.108-3.192-4.66-6.948-4.66-11.276s1.531-8.087,4.596-11.279
		c3.061-3.189,6.497-4.787,10.31-4.787c3.942,0,7.456,1.672,10.539,5.012v-3.983h4.372v30.073h-4.372v-3.919
		c-3.039,3.299-6.51,4.948-10.409,4.948C154.943,279.486,151.486,277.891,148.38,274.698z M151.271,254.906
		c-2.121,2.376-3.182,5.216-3.182,8.516c0,3.297,1.062,6.138,3.182,8.513c2.121,2.379,4.573,3.565,7.354,3.565
		c2.789,0,5.239-1.187,7.362-3.565c2.117-2.375,3.177-5.216,3.177-8.513c0-3.3-1.06-6.14-3.177-8.516
		c-2.123-2.376-4.573-3.564-7.362-3.564C155.845,251.342,153.393,252.53,151.271,254.906z"/>
	<path fill="#58595B" d="M208.236,259.436v19.021h-4.371v-19.021c0-2.269-0.814-4.185-2.439-5.751
		c-1.628-1.56-3.789-2.343-6.492-2.343c-2.697,0-4.863,1.153-6.492,3.471c-1.625,2.312-2.437,5.183-2.437,8.609v15.035h-4.374
		v-30.073h4.374v2.7c2.394-2.485,5.374-3.729,8.929-3.729c3.813,0,6.982,1.085,9.514,3.246
		C206.971,252.763,208.236,255.71,208.236,259.436z"/>
	<path fill="#58595B" d="M218.807,274.698c-3.105-3.192-4.657-6.948-4.657-11.276s1.528-8.087,4.593-11.279
		c3.063-3.189,6.5-4.787,10.313-4.787c3.942,0,7.454,1.672,10.539,5.012v-3.983h4.371v28.918c0,4.667-1.212,8.168-3.634,10.506
		c-2.419,2.335-5.622,3.501-9.604,3.501h-9.896v-3.983h9.896c2.83,0,5.012-0.848,6.555-2.536c1.542-1.695,2.313-4.19,2.313-7.487
		v-2.764c-3.042,3.299-6.512,4.948-10.412,4.948C225.369,279.486,221.912,277.891,218.807,274.698z M221.7,254.906
		c-2.123,2.376-3.185,5.216-3.185,8.516c0,3.297,1.062,6.138,3.185,8.513c2.118,2.379,4.573,3.565,7.354,3.565
		c2.787,0,5.238-1.187,7.359-3.565c2.118-2.375,3.18-5.216,3.18-8.513c0-3.3-1.062-6.14-3.18-8.516
		c-2.121-2.376-4.572-3.564-7.359-3.564C226.273,251.342,223.818,252.53,221.7,254.906z"/>
	<path fill="#58595B" d="M254.565,263.422c0,3.297,1.059,6.138,3.18,8.513c2.123,2.379,4.573,3.565,7.356,3.565
		c3.086,0,5.323-0.427,6.717-1.284c1.391-0.854,2.644-2.248,3.762-4.175l3.471,2.313c-1.588,2.398-3.39,4.188-5.4,5.366
		c-2.013,1.177-4.82,1.767-8.418,1.767c-3.813,0-7.273-1.596-10.376-4.788c-3.108-3.192-4.662-6.948-4.662-11.276
		s1.531-8.087,4.596-11.279c3.063-3.189,6.5-4.787,10.312-4.787c3.815,0,7.25,1.598,10.315,4.787
		c3.062,3.192,4.596,6.951,4.596,11.279H254.565z M255.209,259.436h19.792c-0.73-2.353-2.017-4.292-3.856-5.813
		c-1.842-1.523-3.855-2.281-6.043-2.281c-2.184,0-4.197,0.758-6.037,2.281C257.222,255.144,255.936,257.083,255.209,259.436z"/>
</g>
<g>
	<g>
		<path fill="#F6921E" d="M80.846,159.212c0.367-0.367,0.906-0.51,1.407-0.378l21.702,5.816c3.479-5.719,5.484-12.436,5.484-19.616
			v-37.803H71.636c-20.878,0-37.801,16.926-37.801,37.803c0,20.879,16.922,37.801,37.801,37.801c4.968,0,9.709-0.968,14.055-2.708
			l-5.224-19.504C80.333,160.118,80.476,159.582,80.846,159.212z"/>
		<path fill="#1B75BB" d="M144.262,107.231h-24.669v42.506c0,6.44-1.439,12.55-3.991,18.033l12.29,3.292
			c0.503,0.136,0.896,0.531,1.031,1.031c0.135,0.505-0.01,1.044-0.377,1.414l-5.515,5.515c3.174,2.939,6.742,5.308,10.57,7.058
			c6.734-10.5,10.662-22.969,10.662-36.343V107.231z"/>
		<path fill="#1B75BB" d="M189.784,183.062h37.804c20.876,0,37.798-16.924,37.798-37.8c0-20.879-16.922-37.801-37.798-37.801
			c-4.972,0-9.711,0.967-14.057,2.71l5.225,19.504c0.135,0.5-0.011,1.039-0.379,1.406c-0.275,0.278-0.647,0.431-1.03,0.431
			c-0.128,0-0.253-0.021-0.38-0.054l-21.701-5.813c-3.479,5.719-5.481,12.433-5.481,19.616V183.062z"/>
		<path fill="#F6921E" d="M154.961,183.062h24.67v-42.506c0-6.438,1.436-12.545,3.99-18.032l-12.289-3.294
			c-0.506-0.132-0.896-0.525-1.033-1.031c-0.136-0.505,0.01-1.039,0.379-1.409l5.513-5.515c-3.175-2.942-6.739-5.308-10.569-7.061
			c-6.737,10.501-10.66,22.967-10.66,36.341V183.062z"/>
		<polygon fill="#F6921E" points="150.064,192.58 150.064,192.58 150.064,192.58 		"/>
		<polygon fill="#FFFFFF" points="150.06,192.58 150.064,192.58 150.064,192.58 		"/>
		<path fill="#F6921E" d="M278.79,92.867c-12.779-12.781-29.719-19.82-47.688-19.82h-8.629c-12.376,0-23.969,3.362-33.954,9.195
			c3.282,2.227,6.388,4.708,9.255,7.45l6.312-6.311c0.37-0.368,0.908-0.513,1.411-0.378c0.505,0.135,0.898,0.53,1.031,1.032
			l4.113,15.354c3.762-1.082,7.727-1.674,11.832-1.674h8.629c11.384,0,22.124,4.471,30.244,12.596
			c8.125,8.12,12.596,18.861,12.596,30.245v9.182c0,11.384-4.471,22.122-12.596,30.247c-8.12,8.122-18.86,12.593-30.244,12.593
			l-81.037,0.003h-0.005l-0.087-0.003c-2.031-0.002-4.044-0.155-6.025-0.438c-0.487-0.071-0.972-0.156-1.457-0.242
			c-2.672-0.482-5.28-1.218-7.793-2.189c-0.464-0.185-0.929-0.368-1.391-0.564c-0.454-0.196-0.911-0.393-1.36-0.607
			c-4.399-2.072-8.467-4.915-12.032-8.457c-0.276-0.272-0.429-0.643-0.429-1.033c-0.002-0.388,0.153-0.761,0.423-1.033l4.782-4.782
			l-10.442-2.8l-1.46-0.388l-1.457-0.393l-9.091-2.435l-18.299-4.905l4.449,16.61l2.213,8.261l0.38,1.419l0.379,1.411l3.496,13.05
			l5.553-5.548c0.569-0.562,1.485-0.562,2.053,0.005c3.338,3.323,7.016,6.285,10.961,8.855c0.446,0.293,0.898,0.582,1.353,0.865
			c0.462,0.283,0.926,0.561,1.393,0.834c0.095,0.057,0.187,0.117,0.281,0.171c7.99,4.624,16.873,7.53,26.037,8.566
			c0.485,0.059,0.97,0.11,1.457,0.153c0.487,0.046,0.972,0.087,1.462,0.12l4.654,0.166h81.037c17.97,0,34.909-7.041,47.688-19.82
			c12.782-12.782,19.82-29.722,19.82-47.691v-9.182C298.61,122.585,291.572,105.646,278.79,92.867z"/>
		<path fill="#1B75BB" d="M210.832,111.375l-2.215-8.26l-0.381-1.419l-0.377-1.414l-3.496-13.048l-5.549,5.545
			c-0.57,0.566-1.49,0.566-2.061,0c-3.338-3.328-7.014-6.291-10.961-8.857c-0.446-0.292-0.896-0.583-1.353-0.865
			c-0.459-0.283-0.924-0.562-1.391-0.835c-0.097-0.055-0.188-0.115-0.283-0.171c-7.987-4.625-16.87-7.528-26.034-8.566
			c-0.487-0.055-0.975-0.107-1.459-0.152c-0.488-0.044-0.973-0.087-1.463-0.12l-4.652-0.166H68.121
			c-17.972,0-34.908,7.039-47.689,19.82C7.649,105.651,0.61,122.585,0.61,140.558v9.179c0,17.973,7.039,34.909,19.821,47.691
			c12.781,12.779,29.718,19.82,47.689,19.82h8.629c12.374,0,23.969-3.361,33.952-9.197c-3.282-2.225-6.385-4.705-9.253-7.451
			l-6.314,6.313c-0.368,0.37-0.907,0.513-1.407,0.38c-0.507-0.141-0.898-0.53-1.034-1.036l-4.112-15.35
			c-3.76,1.08-7.727,1.672-11.832,1.672h-8.629c-11.383,0-22.125-4.474-30.248-12.594c-8.124-8.122-12.596-18.865-12.596-30.249
			v-9.179c0-11.384,4.472-22.125,12.596-30.247c8.123-8.123,18.865-12.596,30.248-12.596h80.961c0.016,0,0.033,0,0.049,0l0,0
			c0,0,0.002,0,0.005,0c0,0,0.002,0,0.005,0c0,0,0.003,0,0.005,0c0.008-0.002,0.008,0,0.013,0h0.089
			c2.033,0.005,4.042,0.158,6.025,0.444c0.489,0.069,0.975,0.155,1.459,0.242c2.672,0.477,5.277,1.212,7.791,2.187
			c0.467,0.181,0.929,0.368,1.391,0.564c0.454,0.194,0.911,0.396,1.36,0.605c4.401,2.077,8.467,4.917,12.034,8.459
			c0.273,0.276,0.429,0.646,0.429,1.034s-0.153,0.76-0.429,1.034l-4.779,4.782l10.445,2.8l1.459,0.39l1.455,0.391l9.092,2.437
			l18.299,4.902L210.832,111.375z"/>
	</g>
	<circle fill="#1B75BB" cx="80.954" cy="28.968" r="28.485"/>
	<circle fill="#F6921E" cx="218.268" cy="28.968" r="28.484"/>
</g>
</svg>
